# xmcd
# 
# Track frame offsets:
#     150
#     16712
#     34815
#     52257
#     67215
#     87820
#     108657
#     122487
#     141735
#     155315
#     177505
# 
# Disc length: 2579
# 
# Revision: 10
# Processed by: cddbd v1.5.2PL0 Copyright (c) Steve Scherf et al.
# Submitted via: fre:ac v1.0.27
# 
DISCID=9d0a110b
DTITLE=Putumayo Presents - L A T I N  G R O O V E
DYEAR=2002
DGENRE=Latin
TTITLE0=Barrio Cubano De Ronald Rubinel - El Carretero
TTITLE1=Sin Palabras - Salsita
TTITLE2=Sidestepper - Linda Manigua
TTITLE3=Los Aterciopelados - El Estuche
TTITLE4=Los Moscoso - Soy Callejero
TTITLE5=El Conjunto Massalia - Chan Chan
TTITLE6=Funkanzazenji - Latin Flavour
TTITLE7=Si*Se - Bizcocho Amargo
TTITLE8=Supatone - Yorulamento
TTITLE9=Carlos De Nicaragua and Familia - Sensemaya
TTITLE10=Ozomatli - Cumbia De Los Muertos
EXTD=P u t u m a y o   World Music
EXTT0=
EXTT1=
EXTT2=
EXTT3=
EXTT4=
EXTT5=
EXTT6=
EXTT7=
EXTT8=
EXTT9=
EXTT10=
PLAYORDER=
